<?xml version="1.0" encoding="utf-8"?>
<!-- Generator: Adobe Illustrator 25.4.1, SVG Export Plug-In . SVG Version: 6.00 Build 0)  -->
<svg version="1.1" id="Layer_1" xmlns="http://www.w3.org/2000/svg" xmlns:xlink="http://www.w3.org/1999/xlink" x="0px" y="0px"
	 viewBox="0 0 2000 2000" style="enable-background:new 0 0 2000 2000;" xml:space="preserve">
<style type="text/css">
	.st0{display:none;fill:#FFFFFF;stroke:#000000;stroke-miterlimit:10;}
	.st1{fill:#ECDBB6;}
	.st2{fill:#AA652D;}
	.st3{fill:#5F3813;}
	.st4{fill:#1E1B11;}
	.st5{fill:#E24F79;}
	.st6{fill:#6A8A3E;}
	.st7{fill:none;stroke:#000000;stroke-width:9.6423;stroke-miterlimit:10;}
	.st8{fill:#EF6A96;}
	.st9{fill:#FF88AE;}
</style>
<rect class="st1" width="2000" height="2000"/>
<g>
	<g>
		<g>
			<g>
				<path class="st4" d="M446.76,1228.69h2.68v-93.81h-2.68v-2.1h58.96c19.43,0,30.82,9.94,30.82,25.2
					c0,12.18-6.43,18.76-14.6,22.12c10.99,3.5,17.02,11.76,17.02,24.08c0,16.66-11.12,26.6-30.55,26.6h-61.64V1228.69z
					 M470.07,1152.39v17.5h31.62c9.38,0,13.4-2.52,13.4-8.96c0-5.46-4.02-8.54-12.06-8.54H470.07z M503.7,1211.19
					c8.04,0,13.8-2.66,13.8-11.9c0-7.84-5.76-11.2-13.8-11.2h-33.63v23.1H503.7z"/>
				<path class="st4" d="M638.78,1131.39c29.34,0,54.27,17.64,54.27,50.4c0,32.76-24.92,50.41-54.27,50.41
					c-29.34,0-54.27-17.64-54.27-50.41C584.51,1149.03,609.43,1131.39,638.78,1131.39z M638.78,1212.59
					c17.82,0,32.16-10.64,32.16-30.8c0-20.16-14.34-30.8-32.16-30.8c-17.82,0-32.16,10.64-32.16,30.8
					C606.62,1201.95,620.95,1212.59,638.78,1212.59z"/>
				<path class="st4" d="M740.62,1228.69h2.68v-93.81h-2.68v-2.1h83.21v-2.1h2.01v25.2h-2.01v-3.5h-59.09v18.9h36.31v-2.1h2.01v23.1
					h-2.01v-2.1h-36.31v21h59.09v-4.2h2.01v25.2h-2.01v-1.4h-83.21V1228.69z"/>
				<path class="st4" d="M872.74,1228.69h2.68v-93.81h-2.68v-2.1h58.96c16.75,0,31.89,7.84,31.89,29.4
					c0,18.76-11.66,25.62-25.86,27.02l26.66,39.48h2.81v2.1h-32.83v-2.1h2.81l-21.84-39.2h-18.49v39.2h2.68v2.1h-26.8V1228.69z
					 M896.86,1152.39v19.6h33.5c8.58,0,12.46-3.36,12.46-9.8c0-6.44-3.89-9.8-12.46-9.8H896.86z"/>
				<path class="st4" d="M1010.09,1228.69h2.68v-93.81h-2.68v-2.1h51.19c27.33,0,46.9,18.34,46.9,49c0,30.66-19.56,49-46.9,49
					h-51.19V1228.69z M1035.55,1152.39v58.81h23.05c17.15,0,26.8-10.78,26.8-29.4c0-18.62-9.65-29.4-26.8-29.4H1035.55z"/>
				<path class="st4" d="M1156.42,1228.69h2.68v-93.81h-2.68v-2.1h83.21v-2.1h2.01v25.2h-2.01v-3.5h-59.09v18.9h36.31v-2.1h2.01
					v23.1h-2.01v-2.1h-36.31v21h59.09v-4.2h2.01v25.2h-2.01v-1.4h-83.21V1228.69z"/>
				<path class="st4" d="M1288.54,1228.69h2.68v-93.81h-2.68v-2.1h58.96c16.75,0,31.89,7.84,31.89,29.4
					c0,18.76-11.66,25.62-25.86,27.02l26.66,39.48h2.81v2.1h-32.83v-2.1h2.81l-21.84-39.2h-18.49v39.2h2.68v2.1h-26.8V1228.69z
					 M1312.66,1152.39v19.6h33.5c8.58,0,12.46-3.36,12.46-9.8c0-6.44-3.89-9.8-12.46-9.8H1312.66z"/>
				<path class="st4" d="M1425.89,1228.69h2.68v-93.81h-2.68v-2.1h28.14v2.1h-2.68v93.81h2.68v2.1h-28.14V1228.69z"/>
				<path class="st4" d="M1507.37,1200.41l-0.8,1.68c4.82,4.48,13.94,11.2,26,11.2c9.38,0,12.86-4.34,12.86-12.6v-65.81h-3.35v-2.1
					h28.14v2.1h-2.68v70.71c0,19.46-15.27,28-35.91,28c-13.4,0-27.74-6.58-34.04-12.18l-0.94,2.1l-1.74-1.12l10.72-23.1
					L1507.37,1200.41z"/>
			</g>
			<g>
				<g>
					<g>
						<g>
							<path class="st4" d="M1084.4,848.07l-59.84-54.38l-8.72-7.93l-14.62-13.29c-0.56-0.49-1.28-0.79-2.05-0.79h-0.09
								c-0.77,0-1.49,0.3-2.05,0.79l-21.55,19.59l-8.86,8.07l-30.67,27.85l-3.1,2.82l5.01,3.66l3.1-2.82l30.64-27.85l8.89-8.07
								l18.63-16.93l13.11,11.89l8.72,7.95l53.55,48.65h-4.66c-0.84,0-1.61,0.33-2.19,0.91c-0.56,0.56-0.86,1.33-0.86,2.12v0.07
								c0.07,2.94,0.19,5.88,0.35,8.84c0.02,0.16,0.02,0.33,0.02,0.47c0.3,4.99,0.72,10,1.26,15.02l6.69,4.9
								c-0.65-5.27-1.19-10.52-1.56-15.7c-0.28-3.54-0.47-7.07-0.58-10.54h9.42c1.24,0,2.38-0.79,2.82-1.96
								C1085.64,850.24,1085.33,848.91,1084.4,848.07z M1080.76,913.44l-7.28-5.34c0.4,2.01,0.77,3.99,1.19,5.95l7.32,5.36
								l-4.76,6.51c0.4,1.77,0.82,3.52,1.21,5.25l4.76-6.48C1082.37,920.98,1081.53,917.22,1080.76,913.44z M1110.26,1012.91
								c-0.16-0.44-8.86-22.25-17.84-52.99c-0.61-2.1-1.21-4.24-1.84-6.41l-0.07-0.07h-0.02c-0.42-1-1.38-1.73-2.5-1.84l-5.34-3.92
								c0.35,1.33,0.7,2.64,1.05,3.92c0.23,0.82,0.47,1.63,0.68,2.43c0.35,1.24,0.68,2.45,1.03,3.64c0.33,1.1,0.63,2.17,0.93,3.22
								c1.8,6.23,3.61,12.13,5.36,17.56c0.65,2.1,1.33,4.13,1.96,6.09c4.03,12.27,7.51,21.64,9.4,26.63
								c0.02,0.05,0.05,0.09,0.05,0.12c-1.4,0.28-2.45,1.52-2.45,2.98v59.14H897.57v-59.14c0-1.47-1.05-2.71-2.45-2.98
								c0,0,0-0.02,0.02-0.05c2.96-7.81,9.84-26.56,16.77-50.35c1.89-6.48,3.85-13.67,5.78-21.32c1.26-4.92,2.47-10.03,3.66-15.28
								c0.44-2.01,0.89-4.01,1.33-6.06c0.54-2.45,1.03-4.92,1.54-7.42l-3.73,5.08l-3.05-2.26c-0.3,1.47-0.63,2.94-0.93,4.41
								l0.84,0.61l0.75,0.54l-2.08,2.82l-0.56,0.77c-2.4,10.61-5.04,20.85-7.72,30.39c-9.61,34.24-19.59,59.28-19.78,59.75
								c-0.35,0.91-0.26,1.94,0.26,2.78c0.54,0.82,1.42,1.33,2.4,1.4l0.86,0.05v59.31c0,1.68,1.38,3.03,3.06,3.03h209.17
								c1.68,0,3.03-1.35,3.03-3.03v-59.31l0.89-0.05c0.98-0.07,1.87-0.58,2.38-1.4
								C1110.54,1014.84,1110.64,1013.82,1110.26,1012.91z M1075.44,882.36l-5.15,7.04c0.28,1.91,0.58,3.8,0.89,5.71l5.08-6.93
								C1075.96,886.25,1075.7,884.31,1075.44,882.36z M922.62,883.73c-0.21,1.52-0.44,3.05-0.65,4.59l1.42,1.05l4.1,2.98
								c0.16-1.05,0.33-2.12,0.49-3.19c0.07-0.44,0.12-0.91,0.19-1.38L922.62,883.73z M930.01,855.44l-1.59-1.17l-11.87-8.7
								l-2.73,2.5c-0.12,0.12-0.23,0.23-0.33,0.35l6.74,4.94h5.06c-0.05,1.19-0.09,2.38-0.16,3.59l2.45,1.8l-2.78,3.8
								c-0.19,2.59-0.4,5.2-0.65,7.81l6.74-9.21l0.09,0.07c0.02-0.51,0.07-1.03,0.09-1.54c0.12-2.03,0.21-4.06,0.28-6.09
								L930.01,855.44z"/>
							<path class="st4" d="M894.53,1017.3c-1.68,0-3.04-1.36-3.04-3.04c0-1.68,1.36-3.04,3.04-3.04l210.39-0.07c0,0,0,0,0,0
								c1.68,0,3.04,1.36,3.04,3.04c0,1.68-1.36,3.04-3.04,3.04L894.53,1017.3C894.53,1017.3,894.53,1017.3,894.53,1017.3z"/>
							<path class="st4" d="M999.06,1029.83L999.06,1029.83c-10.09,0-18.27,8.18-18.27,18.27v29.93h36.53v-29.93
								C1017.33,1038.01,1009.15,1029.83,999.06,1029.83z"/>
							<polygon class="st4" points="933.32,857.86 935.82,859.7 928.42,859.7 928.42,854.28 930.02,855.45 931.37,853.6 
								933.78,850.32 938.85,850.32 							"/>
							<polygon class="st4" points="1070.2,850.32 1070.2,859.7 1047.93,859.7 1037.31,851.92 1031.61,859.7 961.67,859.7 
								965.38,854.62 959.51,850.32 							"/>
						</g>
						<path class="st4" d="M997.04,892.21c0,1.68-1.36,3.04-3.04,3.04h-62.58l-3.93-2.88l-4.1-3c0.33-0.13,0.69-0.2,1.07-0.2h5.59
							l6.52,4.78l3.5-4.78H994C995.68,889.17,997.04,890.53,997.04,892.21z"/>
						<path class="st4" d="M1025.26,918.18c-21.32,0.05-68.28,0.12-91.93,0.07c-4.5,0-8.14,0-10.63-0.02c-1.94,0-3.17-0.02-3.5-0.02
							c-0.68-0.07-1.31,0.12-1.84,0.44l0.75,0.54l-2.08,2.82c0.3,1.19,1.33,2.1,2.59,2.24c0.16,0.02,1.14,0.05,2.75,0.05
							c1.77,0.02,4.34,0.02,7.51,0.02c5.46,0.02,12.76,0.02,20.99,0.02c24.35,0,57.02-0.05,75.4-0.07c1.68,0,3.03-1.38,3.03-3.06
							C1028.29,919.55,1026.94,918.18,1025.26,918.18z"/>
						<path class="st4" d="M1090.74,954.63c0,1.23-0.72,2.28-1.77,2.76c-0.39,0.18-0.82,0.28-1.27,0.28H994
							c-1.68,0-3.04-1.36-3.04-3.04c0-1.68,1.36-3.04,3.04-3.04h93.7c0.1,0,0.19,0,0.29,0.01c1.13,0.11,2.08,0.83,2.51,1.84l0,0
							C1090.66,953.81,1090.74,954.21,1090.74,954.63z"/>
						<path class="st4" d="M1095.86,984.51h-45.96c-1.68,0-3.04-1.36-3.04-3.04c0-1.68,1.36-3.04,3.04-3.04h45.96
							c1.68,0,3.04,1.36,3.04,3.04C1098.9,983.15,1097.54,984.51,1095.86,984.51z"/>
					</g>
					<path class="st4" d="M928.17,887.79c-0.07,0.47-0.12,0.93-0.19,1.38h2.08L928.17,887.79z M928.17,887.79
						c-0.07,0.47-0.12,0.93-0.19,1.38h2.08L928.17,887.79z M931.41,895.25l2.73,2.01l-9.91,13.55c-0.51,2.5-1,4.97-1.54,7.42
						c-0.44,2.05-0.89,4.06-1.33,6.06c1.77,0.02,4.34,0.02,7.51,0.02l4.45-6.06l16.84-22.99H931.41z M928.17,887.79
						c-0.07,0.47-0.12,0.93-0.19,1.38h2.08L928.17,887.79z M931.41,895.25l2.73,2.01l-9.91,13.55c-0.51,2.5-1,4.97-1.54,7.42
						c-0.44,2.05-0.89,4.06-1.33,6.06c1.77,0.02,4.34,0.02,7.51,0.02l4.45-6.06l16.84-22.99H931.41z M1082.65,947.68l-10.61-7.77
						l6.41-8.75c-0.4-1.73-0.82-3.47-1.21-5.25l-8.49,11.59l-18.63-13.67l13.25-18.07l11.31,8.28c-0.42-1.96-0.79-3.94-1.19-5.95
						l-7.7-5.64l5.39-7.35c-0.3-1.91-0.61-3.8-0.89-5.71l-7.81,10.66l-18.63-13.64l14.16-19.33l10.4,7.63
						c-0.54-5.01-0.96-10.03-1.26-15.02c0-0.14,0-0.3-0.02-0.47l-12.15-8.91h-21.55l-6.88,9.38l-24.77,33.82l79.29,58.09h2.64
						C1083.35,950.31,1083,949.01,1082.65,947.68z M1031.6,859.69l5.71-7.77l10.61,7.77l6.79,4.97l-14.16,19.33l-17.4-12.76
						L1031.6,859.69z M1007.49,892.62l13.25-18.07l17.4,12.73l-13.25,18.1L1007.49,892.62z M1028.2,907.78l13.25-18.07l18.61,13.64
						l-13.22,18.1L1028.2,907.78z M928.17,887.79c-0.07,0.47-0.12,0.93-0.19,1.38h2.08L928.17,887.79z M931.41,895.25l2.73,2.01
						l-9.91,13.55c-0.51,2.5-1,4.97-1.54,7.42c-0.44,2.05-0.89,4.06-1.33,6.06c1.77,0.02,4.34,0.02,7.51,0.02l4.45-6.06l16.84-22.99
						H931.41z M928.17,887.79c-0.07,0.47-0.12,0.93-0.19,1.38h2.08L928.17,887.79z M1073.53,863.91l-5.74-4.22l-0.68-0.47
						l-12.15-8.91l-14.02-10.28h-0.02l-3.54-2.59l-22.23-16.28l-6.97-5.11l5.08-6.93l7.67-10.49l3.61-4.94l7.63-10.4l44.01,32.25
						l110.99-151.49l-53.48-39.16l-110.99,151.47l-2.59,3.54l-4.29,5.85l-3.61,4.92l-8.63,11.78l-4.87,6.65l-6.27-4.59l-11.96-8.79
						l-5.01-3.66l-9.49-6.95l32.25-44.01L846.73,630.14l-39.16,53.48l151.47,110.96l3.54,2.59v0.02l4.01,2.94l4.99,3.66l14.11,10.33
						l6.09,4.45l-4.48,6.13l-18.77,25.61l-0.75,1l-1.35-1l-25.49-18.68l-5.01-3.66l-12.15-8.89L812.82,970.56l53.48,39.18
						l41.44-56.58l9.96-13.6l11.17-15.25l4.45-6.06l16.84-22.99l4.45-6.09l21.6-29.48l1.05-1.42v-0.02l2.61-3.54l3.19-4.38
						l13.48-18.4l4.71-6.41l6.76,4.97L1034,849.5l-0.58,0.82l-6.88,9.38l-24.77,33.82l79.29,58.09l3.31,2.43l4.59,3.36l3.45,2.54
						l60.82,44.57l39.18-53.48L1073.53,863.91z M1075.3,809.8l-18.07-13.25l12.73-17.4l18.1,13.25L1075.3,809.8z M1090.46,789.12
						l-18.07-13.25l13.64-18.63l18.1,13.25L1090.46,789.12z M1106.53,767.2l-18.07-13.27l13.64-18.61l18.1,13.25L1106.53,767.2z
						 M1122.6,745.25L1104.53,732l13.64-18.63l18.1,13.25L1122.6,745.25z M1138.67,723.33l-18.07-13.25l13.64-18.63l18.1,13.25
						L1138.67,723.33z M1154.74,701.38l-18.07-13.25l13.64-18.63l18.1,13.25L1154.74,701.38z M1181.44,664.93l-10.63,14.53
						l-18.07-13.25l10.63-14.53L1181.44,664.93z M1140.74,635.11l19.31,14.16l-10.63,14.53l-19.31-14.16L1140.74,635.11z
						 M1127.68,652.95l19.33,14.16l-13.67,18.61l-19.31-14.16L1127.68,652.95z M1111.61,674.87l19.33,14.16l-13.67,18.63
						l-19.31-14.16L1111.61,674.87z M1095.55,696.79l19.33,14.16l-13.67,18.63l-19.31-14.16L1095.55,696.79z M1079.48,718.73
						l19.33,14.16l-13.67,18.63l-19.31-14.16L1079.48,718.73z M1063.41,740.66l19.33,14.16l-13.67,18.63l-19.31-14.16
						L1063.41,740.66z M1047.34,762.6l19.33,14.16l-12.76,17.4L1034.61,780L1047.34,762.6z M992.49,741.99l-13.25,18.1l-17.4-12.76
						l13.25-18.07L992.49,741.99z M971.8,726.83l-13.25,18.07l-18.63-13.64l13.25-18.07L971.8,726.83z M949.86,710.76l-13.25,18.07
						L918,715.19l13.22-18.07L949.86,710.76z M927.94,694.69l-13.25,18.07l-18.63-13.64l13.25-18.07L927.94,694.69z M906.02,678.62
						l-13.25,18.07l-18.63-13.64l13.25-18.07L906.02,678.62z M884.07,662.55l-13.25,18.07l-18.63-13.64l13.25-18.07L884.07,662.55z
						 M847.62,635.85l14.53,10.63l-13.25,18.07l-14.53-10.63L847.62,635.85z M817.79,676.57l14.16-19.33l14.53,10.63l-14.16,19.33
						L817.79,676.57z M835.63,689.61l14.16-19.31l18.61,13.64l-14.13,19.33L835.63,689.61z M857.55,705.68l14.16-19.31l18.63,13.64
						l-14.16,19.33L857.55,705.68z M879.48,721.74l14.16-19.31l18.63,13.64l-14.16,19.33L879.48,721.74z M901.42,737.81l14.16-19.31
						l18.63,13.64l-14.16,19.33L901.42,737.81z M923.34,753.88l14.16-19.31l18.63,13.64l-14.16,19.33L923.34,753.88z M945.29,769.95
						l14.16-19.31l17.4,12.73l-14.16,19.33L945.29,769.95z M924.67,824.8l8.16,5.99l5.01,3.66l4.92,3.59l-9,12.27l-2.4,3.29
						l-1.35,1.84l-1.59-1.17l-11.87-8.7l-4.62-3.38L924.67,824.8z M909.51,845.51l3.99,2.92l6.74,4.94l4.9,3.59l2.45,1.8l-2.78,3.8
						l-10.87,14.83l-18.07-13.25L909.51,845.51z M893.45,867.43l18.07,13.25l-13.64,18.63l-18.07-13.25L893.45,867.43z
						 M877.38,889.38l18.1,13.25l-13.67,18.61l-18.07-13.25L877.38,889.38z M861.31,911.3l18.1,13.25l-13.67,18.63l-18.07-13.25
						L861.31,911.3z M845.24,933.22l18.1,13.25l-13.67,18.63l-18.07-13.25L845.24,933.22z M818.54,969.67l10.63-14.51l18.1,13.25
						l-10.63,14.51L818.54,969.67z M859.23,999.5l-19.31-14.16l10.63-14.53l19.33,14.16L859.23,999.5z M872.29,981.68l-19.31-14.16
						l13.64-18.63l19.33,14.16L872.29,981.68z M888.36,959.76l-19.31-14.16l13.64-18.63l19.33,14.16L888.36,959.76z M915.46,922.77
						l-11.03,15.04l-19.31-14.16l13.64-18.63l17.75,13.01l0.84,0.61l0.75,0.54l-2.08,2.82L915.46,922.77z M934.14,897.26
						l-9.91,13.55l-3.73,5.08l-3.05-2.26l-16.25-11.89l13.64-18.63l7.14,5.22l1.42,1.05l4.1,2.98l3.92,2.89L934.14,897.26z
						 M936.57,893.95l-6.51-4.78l-1.89-1.38l-5.55-4.06l-5.36-3.94l6.9-9.42l6.74-9.21l0.09,0.07l19.22,14.09l-10.14,13.85
						L936.57,893.95z M952.63,872.02l-16.81-12.34l-2.5-1.82l5.53-7.56l7.21-9.84l13.46,9.84l5.88,4.31l-3.73,5.06L952.63,872.02z
						 M1164.37,945l-14.16,19.33l-18.63-13.67l14.16-19.31L1164.37,945z M1142.42,928.93l-14.16,19.33l-18.61-13.67l14.16-19.31
						L1142.42,928.93z M1120.5,912.86l-14.16,19.33l-18.63-13.67l14.16-19.31L1120.5,912.86z M1098.58,896.79l-14.16,19.33
						l-3.66-2.68l-7.28-5.34l-7.7-5.64l5.39-7.35l5.08-6.93l3.68-5.04L1098.58,896.79z M1075.09,879.6l1.54,1.12l-1.19,1.63
						l-5.15,7.04l-7.81,10.66l-18.63-13.64l14.16-19.33l10.4,7.63L1075.09,879.6z M1031.6,859.69l5.71-7.77l10.61,7.77l6.79,4.97
						l-14.16,19.33l-17.4-12.76L1031.6,859.69z M1007.49,892.62l13.25-18.07l17.4,12.73l-13.25,18.1L1007.49,892.62z M1028.2,907.78
						l13.25-18.07l18.61,13.64l-13.22,18.1L1028.2,907.78z M1050.12,923.84l13.25-18.07l11.31,8.28l7.32,5.36l-4.76,6.51
						l-8.49,11.59L1050.12,923.84z M1090.67,953.58l-0.09-0.07l-0.07-0.07h-0.02l-2.5-1.84l-5.34-3.92l-10.61-7.77l6.41-8.75
						l4.76-6.48l2.08-2.85l18.63,13.64L1090.67,953.58z M1093.98,955.98l13.25-18.07l18.63,13.64l-13.25,18.1L1093.98,955.98z
						 M1115.91,972.05l13.25-18.07l18.63,13.64l-13.25,18.1L1115.91,972.05z M1152.36,998.75l-14.51-10.63l13.25-18.07l14.51,10.63
						L1152.36,998.75z M1153.5,966.73l14.16-19.31l14.53,10.63l-14.16,19.33L1153.5,966.73z M928.17,887.79
						c-0.07,0.47-0.12,0.93-0.19,1.38h2.08L928.17,887.79z M931.41,895.25l2.73,2.01l-9.91,13.55c-0.51,2.5-1,4.97-1.54,7.42
						c-0.44,2.05-0.89,4.06-1.33,6.06c1.77,0.02,4.34,0.02,7.51,0.02l4.45-6.06l16.84-22.99H931.41z M928.17,887.79
						c-0.07,0.47-0.12,0.93-0.19,1.38h2.08L928.17,887.79z M931.41,895.25l2.73,2.01l-9.91,13.55c-0.51,2.5-1,4.97-1.54,7.42
						c-0.44,2.05-0.89,4.06-1.33,6.06c1.77,0.02,4.34,0.02,7.51,0.02l4.45-6.06l16.84-22.99H931.41z M928.17,887.79
						c-0.07,0.47-0.12,0.93-0.19,1.38h2.08L928.17,887.79z M931.41,895.25l2.73,2.01l-9.91,13.55c-0.51,2.5-1,4.97-1.54,7.42
						c-0.44,2.05-0.89,4.06-1.33,6.06c1.77,0.02,4.34,0.02,7.51,0.02l4.45-6.06l16.84-22.99H931.41z M928.17,887.79
						c-0.07,0.47-0.12,0.93-0.19,1.38h2.08L928.17,887.79z M928.17,887.79c-0.07,0.47-0.12,0.93-0.19,1.38h2.08L928.17,887.79z"/>
				</g>
				<circle class="st4" cx="1000.53" cy="817.31" r="15.14"/>
			</g>
			<path class="st4" d="M1000,455.15c-194.74,0-353.17,158.43-353.17,353.17v287.61h33.11V808.32
				c0-176.48,143.58-320.06,320.06-320.06c176.48,0,320.04,143.58,320.04,320.06v287.61h33.13V808.32
				C1353.17,613.58,1194.74,455.15,1000,455.15z M1302.87,1295.22c-43.14,125.83-162.59,216.52-302.87,216.52
				s-259.75-90.69-302.87-216.52c-2.43-7.08-4.63-14.25-6.55-21.55h-34.14c1.73,7.28,3.69,14.46,5.87,21.55
				c44.35,144.39,178.95,249.64,337.68,249.64s293.33-105.24,337.68-249.64c2.18-7.08,4.14-14.27,5.87-21.55h-34.16
				C1307.47,1280.97,1305.28,1288.13,1302.87,1295.22z"/>
			<path class="st4" d="M1000,524.7c-156.4,0-283.64,127.22-283.64,283.62v287.61h13.25V808.32
				c0-149.09,121.31-270.39,270.39-270.39s270.37,121.31,270.37,270.39v287.61h13.25V808.32
				C1283.62,651.92,1156.38,524.7,1000,524.7z M1257.66,1273.67c-2.33,7.32-4.97,14.51-7.89,21.55c-3.2,7.7-6.74,15.21-10.6,22.53
				c-1.98,3.71-4.03,7.36-6.17,10.97c-4.59,7.81-9.58,15.36-14.91,22.64c-2.79,3.8-5.7,7.53-8.66,11.18
				c-9.34,11.44-19.61,22.08-30.68,31.83c-5.97,5.29-12.18,10.3-18.6,15.04c-22.21,16.39-47.02,29.46-73.67,38.49h-0.02
				c-7.53,2.54-15.17,4.76-22.98,6.64h-0.02c-6.27,1.51-12.61,2.82-19.05,3.86c-4.07,0.7-8.19,1.28-12.33,1.77
				c-8.7,1.05-17.54,1.66-26.5,1.86c-1.83,0.02-3.71,0.04-5.57,0.04c-2.75,0-5.48-0.04-8.21-0.13c-14.15-0.43-28.03-1.94-41.56-4.48
				c-6.83-1.26-13.57-2.79-20.18-4.57c-34.46-9.24-66.22-25.13-93.83-46.21c-5.48-4.2-10.82-8.6-15.96-13.18
				c-10.41-9.28-20.12-19.35-28.97-30.12c-2.92-3.52-5.74-7.13-8.49-10.82c-5.27-7.13-10.22-14.51-14.81-22.15
				c-2.13-3.54-4.18-7.15-6.14-10.8c-4.27-7.89-8.15-16.04-11.63-24.39c-2.92-7.04-5.57-14.23-7.89-21.55h-13.87
				c2.2,7.32,4.69,14.51,7.47,21.55c3.71,9.43,7.92,18.6,12.57,27.5c1.88,3.61,3.84,7.17,5.87,10.67
				c4.31,7.45,8.96,14.68,13.91,21.68c2.52,3.56,5.1,7.04,7.79,10.48c7.74,9.96,16.13,19.39,25.13,28.23
				c3.95,3.9,8.02,7.7,12.22,11.35c49.9,43.69,115.21,70.19,186.59,70.19c71.15,0,136.29-26.35,186.14-69.79
				c4.48-3.9,8.83-7.96,13.06-12.16c9.3-9.15,17.98-18.99,25.94-29.38c2.71-3.52,5.31-7.1,7.85-10.75
				c4.97-7.13,9.62-14.51,13.91-22.1c2.03-3.54,3.97-7.15,5.82-10.8c4.16-8.15,7.96-16.53,11.33-25.11
				c2.77-7.04,5.27-14.23,7.47-21.55H1257.66z"/>
			<rect x="421.71" y="1074.38" class="st4" width="1156.59" height="21.55"/>
			<rect x="421.71" y="1273.67" class="st4" width="1156.59" height="21.55"/>
		</g>
		<g>
			<path class="st4" d="M955.65,1464.23H940.6c-3.35-3.95-6.87-7.74-10.56-11.35c-24.94-24.51-57.54-41.24-93.83-46.21
				c-7.42-1.02-15.02-1.56-22.74-1.56h-0.06c-4.2-3.65-8.28-7.45-12.22-11.35c4.05-0.28,8.15-0.43,12.29-0.43
				c2.28,0,4.54,0.04,6.78,0.15c52.16,1.94,98.61,26.43,129.97,63.96C952.1,1459.66,953.9,1461.92,955.65,1464.23z"/>
			<path class="st4" d="M1006.81,1464.23h-13.61c-0.47-0.77-0.94-1.54-1.41-2.3c-2.37-3.88-4.86-7.66-7.49-11.37
				c-2.47-3.46-5.04-6.85-7.72-10.16c-38.4-47.68-97.26-78.21-163.1-78.21c-7.49,0-14.89,0.41-22.19,1.17
				c-5.14,0.53-10.22,1.26-15.23,2.18c-2.69-3.44-5.27-6.91-7.79-10.48c4.8-1,9.64-1.86,14.53-2.52
				c10.03-1.41,20.27-2.13,30.68-2.13c68.1,0,129.12,30.94,169.7,79.49c2.69,3.16,5.25,6.42,7.72,9.73
				c5.31,7.15,10.22,14.61,14.68,22.38c0.02,0.02,0.02,0.04,0.04,0.06C1006.02,1462.78,1006.4,1463.5,1006.81,1464.23z"/>
			<path class="st4" d="M1252.73,1320.33c-1.86,3.65-3.8,7.25-5.82,10.8c-4.59-0.94-9.24-1.75-13.91-2.41
				c-11.52-1.69-23.3-2.54-35.27-2.54c-73.41,0-139.4,32.41-184.42,83.67c5.23,6.44,10.13,13.12,14.72,20.05
				c40.6-48.56,101.62-79.49,169.7-79.49c6.85,0,13.65,0.32,20.35,0.94c5.01,0.45,9.98,1.09,14.91,1.88
				c-2.54,3.65-5.14,7.23-7.85,10.75c-5.18-0.68-10.43-1.17-15.72-1.45c-3.88-0.23-7.77-0.34-11.69-0.34
				c-65.84,0-124.68,30.53-163.1,78.19c3.5,5.87,6.74,11.86,9.77,18.01c0.94,1.94,1.88,3.88,2.77,5.85h-13.06
				c-0.68-1.37-1.34-2.73-2.05-4.07c-1.64-3.24-3.35-6.46-5.14-9.6c-2.11-3.69-4.31-7.34-6.59-10.92
				c-4.57-7.1-9.47-13.97-14.72-20.55c-2.47-3.14-5.06-6.21-7.7-9.24c-45.04-51.27-111.02-83.67-184.44-83.67
				c-15.53,0-30.74,1.45-45.49,4.22c-4.59,0.87-9.13,1.86-13.63,2.99c-2.03-3.5-3.99-7.06-5.87-10.67c4.4-1.15,8.85-2.2,13.36-3.11
				c16.68-3.41,33.94-5.21,51.63-5.21c76.31,0,144.99,33.43,192.14,86.38c47.15-52.95,115.8-86.38,192.12-86.38
				c14.1,0,27.95,1.13,41.43,3.35C1243.73,1318.47,1248.25,1319.35,1252.73,1320.33z"/>
			<path class="st4" d="M1199.2,1393.36c-4.22,4.2-8.58,8.26-13.06,12.16c-8.88,0.6-17.58,1.92-26.01,3.88
				c-27.86,6.44-53.08,19.93-73.67,38.49h-0.02c-5.65,5.08-10.94,10.54-15.85,16.34h-15.04c2.52-3.33,5.16-6.57,7.89-9.71h0.02
				c28.78-32.98,69.44-55.3,115.27-60.16c6.23-0.68,12.57-1.02,18.99-1.02C1198.22,1393.33,1198.71,1393.33,1199.2,1393.36z"/>
		</g>
	</g>
</g>
</svg>
