<?xml version="1.0" encoding="utf-8"?>
<!-- Generator: Adobe Illustrator 25.4.1, SVG Export Plug-In . SVG Version: 6.00 Build 0)  -->
<svg version="1.1" id="Layer_1" xmlns="http://www.w3.org/2000/svg" xmlns:xlink="http://www.w3.org/1999/xlink" x="0px" y="0px"
	 viewBox="0 0 2000 2000" style="enable-background:new 0 0 2000 2000;" xml:space="preserve">
<style type="text/css">
	.st0{display:none;fill:#FFFFFF;stroke:#000000;stroke-miterlimit:10;}
	.st1{fill:#ECDBB6;}
	.st2{fill:#AA652D;}
	.st3{fill:#5F3813;}
	.st4{fill:#1E1B11;}
	.st5{fill:#E24F79;}
	.st6{fill:#6A8A3E;}
	.st7{fill:none;stroke:#000000;stroke-width:9.6423;stroke-miterlimit:10;}
	.st8{fill:#EF6A96;}
	.st9{fill:#FF88AE;}
</style>
<rect class="st0" width="2000" height="2000"/>
<g>
	<g>
		<g>
			<path class="st2" d="M294.88,1337.19l3.09-3.43v-115.98l-3.09-3.43v-11.9h43.43c33.39,0,35.71,16.54,35.71,38.12
				c0,14.52-2.7,28.84-15.06,31.67c13.9,4.24,17.76,18.15,17.76,33.48c0,7.46-0.19,15.73-1.74,22.99
				c-2.51,12.51-14.86,20.37-28.38,20.37h-51.73V1337.19z M335.42,1263.77c6.95,0,7.34-10.49,7.34-23c0-12.1-0.39-20.77-6.56-20.77
				h-6.18v43.77H335.42z M342.95,1324.08v-30.26c0-8.07-0.77-12.51-6.37-12.51h-6.56v50.22
				C334.65,1331.54,342.95,1332.75,342.95,1324.08z"/>
			<path class="st2" d="M547.36,1319.64c-2.32,22.59-19.5,31.87-38.22,31.87c-18.72,0-35.9-9.28-38.22-31.87
				c-1.16-12.91-1.93-28.84-1.93-43.97c0-15.13,0.77-30.86,1.93-43.77c2.32-22.59,19.5-31.87,38.22-31.87
				c18.72,0,35.9,9.28,38.22,31.87c1.16,12.91,1.93,28.64,1.93,43.77C549.29,1290.8,548.52,1306.73,547.36,1319.64z M502.38,1324.69
				c0,5.04,2.9,8.07,6.76,8.07c3.86,0,6.76-3.03,6.76-8.07v-97.83c0-5.04-2.9-8.07-6.76-8.07c-3.86,0-6.76,3.03-6.76,8.07V1324.69z"
				/>
			<path class="st2" d="M641.94,1337.19l3.09-3.43v-115.98l-3.09-3.43v-11.9h70.84v33.89h-21.23V1220h-14.48v44.17h11v-7.26h15.06
				v32.88h-15.06v-7.26h-11v49.01h14.48v-21.58h20.46v39.13h-70.07V1337.19z"/>
			<path class="st2" d="M852.53,1349.09v-51.23c0-5.85-4.44-9.68-11.97-9.28v45.18l3.09,3.43v11.9h-38.22v-11.9l3.09-3.43v-115.98
				l-3.09-3.43v-11.9h48.64c24.52,0,32.04,11.7,32.04,37.11c0,18.76-3.47,37.52-16.41,40.74c9.26,2.22,15.25,8.47,15.25,19.16v34.29
				l3.09,3.43v11.9H852.53z M846.35,1269.82c4.83,0,7.34-2.22,7.34-7.26v-34.89c0-5.85-3.09-7.66-6.76-7.66h-6.37v49.82H846.35z"/>
			<path class="st2" d="M980.12,1337.19l3.09-3.43v-115.98l-3.09-3.43v-11.9h41.31c41.69,0,41.12,29.25,41.12,72.21
				c0,20.37-1.35,36.91-4.44,50.83c-3.09,13.71-11.58,23.6-30.5,23.6h-47.49V1337.19z M1019.3,1331.54c7.14,0,10.42-3.43,10.42-23.2
				v-70.19c0-12.71-0.97-18.15-8.3-18.15h-6.18v111.54H1019.3z"/>
			<path class="st2" d="M1155.38,1337.19l3.09-3.43v-115.98l-3.09-3.43v-11.9h70.84v33.89h-21.23V1220h-14.48v44.17h11v-7.26h15.06
				v32.88h-15.06v-7.26h-11v49.01h14.48v-21.58h20.46v39.13h-70.07V1337.19z"/>
			<path class="st2" d="M1365.97,1349.09v-51.23c0-5.85-4.44-9.68-11.97-9.28v45.18l3.09,3.43v11.9h-38.22v-11.9l3.09-3.43v-115.98
				l-3.09-3.43v-11.9h48.64c24.52,0,32.04,11.7,32.04,37.11c0,18.76-3.47,37.52-16.41,40.74c9.26,2.22,15.25,8.47,15.25,19.16v34.29
				l3.09,3.43v11.9H1365.97z M1359.8,1269.82c4.83,0,7.34-2.22,7.34-7.26v-34.89c0-5.85-3.09-7.66-6.76-7.66H1354v49.82H1359.8z"/>
			<path class="st2" d="M1533.52,1337.19v11.9h-39.38v-11.9l3.09-3.43v-115.98l-3.09-3.43v-11.9h39.38v11.9l-3.09,3.43v115.98
				L1533.52,1337.19z"/>
			<path class="st2" d="M1644.51,1345.46l-2.32,3.63h-16.02v-61.52h25.09v24c0,12.3,0.19,22.19,8.88,22.19
				c5.79,0,8.69-5.24,8.69-12.1V1219.8h-17.57v-17.35h53.86v11.9l-3.09,3.43v95.81c0,27.03-16.41,37.92-37.64,37.92
				C1657.05,1351.51,1648.37,1348.89,1644.51,1345.46z"/>
		</g>
	</g>
	<g>
		<g>
			<g>
				<path class="st2" d="M1211.4,841.44h-178.53v-23.58c-4.55-1.86-13.84-4.83-28.41-5.8v29.37h-8.3v-29.41
					c-14.92,0.93-24.41,3.95-29.03,5.84v23.58H789.79l210.8-192.95L1211.4,841.44z"/>
				<polygon class="st3" points="641.03,1014.17 641.03,1119.24 815.03,1119.24 815.03,1143.71 616.57,1143.71 616.57,1018.32 
					592.38,1018.32 776.62,852.77 820.64,852.77 				"/>
				<polygon class="st3" points="1407.62,1018.32 1372.8,1018.32 1372.8,1143.71 875.85,1143.71 875.85,1119.24 1348.34,1119.24 
					1348.34,1004.61 1179.37,852.77 1223.38,852.77 				"/>
			</g>
			<path class="st3" d="M1000,804.86c-27.54,0.92-39.84,8.61-39.84,8.61v80.77h79.69v-80.77
				C1039.85,813.48,1027.54,805.79,1000,804.86z M996.16,887.27h-29.03v-34.83h29.03V887.27z M996.16,846.67h-29.03v-28.8
				c4.61-1.88,14.11-4.91,29.03-5.84V846.67z M1032.87,887.27h-28.41v-34.83h28.41V887.27z M1032.87,846.67h-28.41v-34.6
				c14.57,0.97,23.86,3.94,28.41,5.8V846.67z"/>
			<g>
				<path class="st3" d="M955.8,944.86v150.15h84.92V944.86H955.8z M995.8,1088.03h-33.02v-41.54h33.02V1088.03z M995.8,1041.16
					h-33.02v-40.92h33.02V1041.16z M995.8,993.16h-33.02v-41.33h33.02V993.16z M1033.74,1088.03h-32.61v-41.54h32.61V1088.03z
					 M1033.74,1041.16h-32.61v-40.92h32.61V1041.16z M1033.74,993.16h-32.61v-41.33h32.61V993.16z"/>
				<path class="st3" d="M1161.74,944.86v150.15h84.92V944.86H1161.74z M1201.74,1088.03h-33.02v-41.54h33.02V1088.03z
					 M1201.74,1041.16h-33.02v-40.92h33.02V1041.16z M1201.74,993.16h-33.02v-41.33h33.02V993.16z M1239.69,1088.03h-32.61v-41.54
					h32.61V1088.03z M1239.69,1041.16h-32.61v-40.92h32.61V1041.16z M1239.69,993.16h-32.61v-41.33h32.61V993.16z"/>
			</g>
			<path class="st3" d="M808.06,938.55v205.15h6.97V992.24h60.82v151.47h6.97V938.55H808.06z M815.03,986.86v-41.33h60.82v41.33
				H815.03z"/>
			<path class="st3" d="M694.52,992.24v91.54h76.33v-91.54H694.52z M730.47,1077.51h-29.68v-37.33h29.68V1077.51z M730.47,1035.38
				h-29.68V998.6h29.68V1035.38z M764.58,1077.51h-29.31v-37.33h29.31V1077.51z M764.58,1035.38h-29.31V998.6h29.31V1035.38z"/>
		</g>
	</g>
</g>
</svg>
