<?xml version="1.0" encoding="utf-8"?>
<!-- Generator: Adobe Illustrator 25.4.1, SVG Export Plug-In . SVG Version: 6.00 Build 0)  -->
<svg version="1.1" id="Layer_1" xmlns="http://www.w3.org/2000/svg" xmlns:xlink="http://www.w3.org/1999/xlink" x="0px" y="0px"
	 viewBox="0 0 2000 2000" style="enable-background:new 0 0 2000 2000;" xml:space="preserve">
<style type="text/css">
	.st0{display:none;fill:#FFFFFF;stroke:#000000;stroke-miterlimit:10;}
	.st1{fill:#ECDBB6;}
	.st2{fill:#AA652D;}
	.st3{fill:#5F3813;}
	.st4{fill:#1E1B11;}
	.st5{fill:#E24F79;}
	.st6{fill:#6A8A3E;}
	.st7{fill:none;stroke:#000000;stroke-width:9.6423;stroke-miterlimit:10;}
	.st8{fill:#EF6A96;}
	.st9{fill:#FF88AE;}
</style>
<rect x="0" class="st0" width="2000" height="2000"/>
<g>
	<g>
		<g>
			<path class="st5" d="M354.36,1303.18h-0.48c-0.11-2.92-1.16-5.42-3.14-7.5c-1.99-2.07-4.38-3.12-7.17-3.12c-0.11,0-0.43,0-0.97,0
				c-0.54,0-0.91,0-1.13,0v-1.68h12.89V1303.18z M354.36,1396.48v12.29h-12.89v-1.68c0.21,0,0.59,0,1.13,0c0.54,0,0.86,0,0.97,0
				c2.79,0,5.18-1.04,7.17-3.12c1.99-2.08,3.04-4.57,3.14-7.5H354.36z M378.05,1290.88v117.89h-24.17v-117.89H378.05z
				 M388.05,1290.88c7.84,0,14.85,0.98,21.03,2.95c6.18,1.97,11.04,5.05,14.59,9.26c3.54,4.21,5.32,9.74,5.32,16.59
				c0,5.16-0.94,9.52-2.82,13.05c-1.88,3.54-4.33,6.29-7.34,8.25c-3.01,1.96-6.18,3.17-9.51,3.62c5.37,0.45,10.23,2.02,14.59,4.72
				c4.35,2.69,7.76,6.29,10.23,10.78c2.47,4.49,3.71,9.77,3.71,15.83c0,7.19-1.88,13.22-5.64,18.1c-3.76,4.88-9.05,8.56-15.88,11.03
				c-6.82,2.47-14.75,3.71-23.77,3.71H376.6c0.11-2.58,0.16-5.11,0.16-7.58h8.7c4.84,0,9.11-0.95,12.82-2.86
				c3.71-1.91,6.61-4.88,8.7-8.93c2.1-4.04,3.15-9.2,3.15-15.49c0-4.94-0.73-9.15-2.18-12.63c-1.45-3.48-3.38-6.32-5.8-8.5
				c-2.42-2.19-5.24-3.79-8.46-4.8c-3.22-1.01-6.61-1.52-10.15-1.52v-1.52c2.47,0,4.89-0.42,7.25-1.26
				c2.36-0.84,4.49-2.16,6.37-3.96c1.88-1.8,3.36-4.18,4.43-7.16c1.07-2.97,1.61-6.54,1.61-10.69c0-5.73-0.86-10.33-2.58-13.81
				c-1.72-3.48-4.11-6-7.17-7.58c-3.06-1.57-6.69-2.36-10.88-2.36h-20.79c0-0.11-0.13-0.76-0.4-1.94c-0.27-1.18-0.67-2.95-1.21-5.3
				H388.05z"/>
			<path class="st5" d="M564.69,1288.53c12.89,0,24.09,2.5,33.6,7.49c9.51,5,16.87,12.04,22.08,21.14
				c5.21,9.09,7.82,19.99,7.82,32.67c0,12.58-2.61,23.44-7.82,32.59c-5.21,9.15-12.57,16.22-22.08,21.22
				c-9.51,5-20.71,7.49-33.6,7.49c-12.89,0-24.1-2.5-33.6-7.49c-9.51-5-16.84-12.04-22-21.14s-7.74-19.98-7.74-32.67
				c0-12.57,2.58-23.44,7.74-32.59s12.49-16.22,22-21.22C540.59,1291.03,551.79,1288.53,564.69,1288.53z M564.69,1404.06
				c7.63,0,14.21-2.22,19.74-6.65c5.53-4.43,9.77-10.69,12.73-18.78c2.95-8.08,4.43-17.68,4.43-28.8c0-11.12-1.48-20.72-4.43-28.8
				c-2.96-8.08-7.2-14.34-12.73-18.78c-5.54-4.44-12.12-6.65-19.74-6.65c-7.52,0-14.05,2.22-19.58,6.65
				c-5.54,4.44-9.81,10.69-12.81,18.78c-3.01,8.08-4.51,17.68-4.51,28.8c0,11.11,1.5,20.71,4.51,28.8
				c3.01,8.08,7.28,14.34,12.81,18.78C550.63,1401.84,557.16,1404.06,564.69,1404.06z"/>
			<path class="st5" d="M699.9,1303.18h-0.48c-0.11-2.92-1.16-5.42-3.14-7.5c-1.99-2.07-4.38-3.12-7.17-3.12h-2.09v-1.68h12.89
				V1303.18z M699.9,1396.48v12.29h-12.89v-1.68h2.09c2.79,0,5.18-1.04,7.17-3.12c1.99-2.08,3.04-4.57,3.14-7.5H699.9z
				 M723.6,1290.88v117.89h-24.17v-117.89H723.6z M768.08,1290.88v7.24h-44.97v-7.24H768.08z M760.18,1347.14v7.07h-37.07v-7.07
				H760.18z M766.14,1401.53l3.87,7.24h-46.9v-7.24H766.14z M777.91,1374.42l-7.41,34.36h-31.59l5.8-7.24
				c5.37,0,10.1-1.1,14.18-3.28c4.08-2.19,7.57-5.33,10.47-9.43c2.9-4.1,5.21-8.9,6.93-14.4H777.91z M760.18,1331.3v16.17h-15.31
				v-0.34c3.97-0.11,7.25-1.54,9.83-4.3c2.58-2.75,3.87-6.15,3.87-10.19v-1.35H760.18z M760.18,1353.87v16.17h-1.61v-1.52
				c0-4.04-1.29-7.41-3.87-10.11c-2.58-2.69-5.86-4.1-9.83-4.21v-0.34H760.18z M768.08,1287.85v4.89l-19.66-1.85
				c2.36,0,4.86-0.17,7.5-0.51c2.63-0.34,5.08-0.73,7.33-1.18C765.5,1288.75,767.11,1288.3,768.08,1287.85z M768.08,1297.62v19.7
				h-1.61v-2.02c0-5.16-1.48-9.32-4.43-12.46c-2.96-3.14-6.96-4.77-12.01-4.88v-0.34H768.08z"/>
			<path class="st5" d="M849.95,1303.18h-0.48c-0.11-2.92-1.16-5.42-3.14-7.5c-1.99-2.07-4.38-3.12-7.17-3.12c-0.11,0-0.46,0-1.05,0
				s-0.94,0-1.05,0v-1.68h12.89V1303.18z M849.95,1396.48v12.29h-12.89v-1.68c0.1,0,0.46,0,1.05,0s0.94,0,1.05,0
				c2.79,0,5.18-1.04,7.17-3.12c1.99-2.08,3.04-4.57,3.14-7.5H849.95z M873.64,1290.88v117.89h-24.17v-117.89H873.64z
				 M892.34,1290.88c4.83,0,9.56,0.56,14.18,1.68c4.62,1.12,8.73,2.92,12.33,5.39c3.6,2.47,6.47,5.73,8.62,9.77
				c2.15,4.04,3.22,9.04,3.22,14.99c0,4.72-0.94,9.41-2.82,14.06c-1.88,4.66-4.76,8.65-8.62,11.96c-3.87,3.31-8.86,5.3-14.99,5.98
				c3.44,1.12,6.58,3.14,9.43,6.06c2.85,2.92,5.18,5.84,7.01,8.76c0.11,0.23,0.73,1.24,1.85,3.03c1.13,1.8,2.52,4.01,4.19,6.65
				c1.67,2.64,3.41,5.3,5.24,8c1.83,2.69,3.49,5.05,5,7.07c2.36,3.03,4.51,5.47,6.45,7.33c1.93,1.85,3.97,3.2,6.12,4.04
				c2.15,0.84,4.62,1.32,7.41,1.43v1.68h-15.79c-5.8,0-11.07-0.56-15.79-1.68c-4.73-1.12-8.92-2.95-12.57-5.47
				c-3.65-2.53-6.82-5.98-9.51-10.36c-0.86-1.35-1.8-3.06-2.82-5.14c-1.02-2.08-2.07-4.29-3.14-6.65c-1.08-2.36-2.12-4.63-3.15-6.82
				s-1.91-4.18-2.66-5.98c-0.75-1.8-1.29-3.2-1.61-4.21c-1.4-3.59-3.04-6.29-4.92-8.08c-1.88-1.8-3.9-2.86-6.04-3.2v-1.68
				c0.32,0,0.97,0,1.93,0s1.99,0,3.06,0c2.9,0,5.72-0.62,8.46-1.85c2.74-1.23,5.19-3.26,7.34-6.06c2.15-2.8,3.65-6.68,4.51-11.62
				c0.22-1.01,0.4-2.19,0.56-3.54c0.16-1.35,0.19-2.86,0.08-4.55c-0.32-8.08-2.26-14.01-5.8-17.77c-3.54-3.76-7.95-5.7-13.21-5.81
				c-1.51-0.11-3.14-0.14-4.92-0.08c-1.77,0.06-3.39,0.08-4.84,0.08s-2.45,0-2.98,0c0-0.11-0.14-0.76-0.4-1.94
				c-0.27-1.18-0.67-3-1.21-5.47H892.34z M873.16,1396.48h0.48c0,2.92,1.02,5.42,3.06,7.5c2.04,2.08,4.46,3.12,7.25,3.12
				c0.21,0,0.86,0,1.93,0v1.68h-12.73V1396.48z"/>
			<path class="st5" d="M1016.28,1303.18h-0.48c0-2.92-1.02-5.42-3.06-7.5c-2.04-2.07-4.46-3.12-7.25-3.12h-1.93l-0.16-1.68h12.89
				V1303.18z M1016.28,1396.48v12.29h-12.89v-1.68h2.09c2.79,0,5.18-1.04,7.17-3.12c1.99-2.08,3.04-4.57,3.14-7.5H1016.28z
				 M1039.97,1290.88v117.89h-24.17v-117.89H1039.97z M1061.89,1290.88c12.67,0,23.64,2.39,32.88,7.16
				c9.24,4.77,16.36,11.56,21.35,20.38c5,8.82,7.5,19.28,7.5,31.41c0,12.13-2.5,22.6-7.5,31.41c-5,8.82-12.12,15.61-21.35,20.38
				c-9.24,4.77-20.2,7.16-32.88,7.16h-38.36l-0.16-7.07c3.11,0,6.37,0,9.75,0c3.38,0,6.66,0,9.83,0s6.05,0,8.62,0
				c2.58,0,5.37,0,8.38,0c7.73,0,14.39-2.11,19.98-6.32c5.58-4.21,9.88-10.19,12.89-17.94c3.01-7.75,4.51-16.95,4.51-27.62
				c0-10.67-1.51-19.87-4.51-27.62c-3.01-7.75-7.31-13.73-12.89-17.94c-5.59-4.21-12.25-6.32-19.98-6.32c-3.12,0-6.02,0-8.7,0
				c-2.69,0-5.7,0-9.03,0c-3.33,0-6.77,0-10.31,0c-3.55,0-6.93,0-10.15,0v-7.07H1061.89z"/>
			<path class="st5" d="M1194.85,1303.18h-0.48c-0.11-2.92-1.16-5.42-3.14-7.5c-1.99-2.07-4.38-3.12-7.17-3.12h-2.09v-1.68h12.89
				V1303.18z M1194.85,1396.48v12.29h-12.89v-1.68h2.09c2.79,0,5.18-1.04,7.17-3.12c1.99-2.08,3.04-4.57,3.14-7.5H1194.85z
				 M1218.54,1290.88v117.89h-24.17v-117.89H1218.54z M1263.03,1290.88v7.24h-44.97v-7.24H1263.03z M1255.13,1347.14v7.07h-37.07
				v-7.07H1255.13z M1261.09,1401.53l3.87,7.24h-46.9v-7.24H1261.09z M1272.86,1374.42l-7.41,34.36h-31.59l5.8-7.24
				c5.37,0,10.1-1.1,14.18-3.28c4.08-2.19,7.57-5.33,10.47-9.43c2.9-4.1,5.21-8.9,6.93-14.4H1272.86z M1255.13,1331.3v16.17h-15.31
				v-0.34c3.97-0.11,7.25-1.54,9.83-4.3c2.58-2.75,3.87-6.15,3.87-10.19v-1.35H1255.13z M1255.13,1353.87v16.17h-1.61v-1.52
				c0-4.04-1.29-7.41-3.87-10.11c-2.58-2.69-5.86-4.1-9.83-4.21v-0.34H1255.13z M1263.03,1287.85v4.89l-19.66-1.85
				c2.36,0,4.86-0.17,7.5-0.51c2.63-0.34,5.08-0.73,7.33-1.18C1260.45,1288.75,1262.06,1288.3,1263.03,1287.85z M1263.03,1297.62
				v19.7h-1.61v-2.02c0-5.16-1.48-9.32-4.43-12.46c-2.96-3.14-6.96-4.77-12.01-4.88v-0.34H1263.03z"/>
			<path class="st5" d="M1344.9,1303.18h-0.48c-0.11-2.92-1.16-5.42-3.14-7.5c-1.99-2.07-4.38-3.12-7.17-3.12c-0.11,0-0.46,0-1.05,0
				s-0.94,0-1.05,0v-1.68h12.89V1303.18z M1344.9,1396.48v12.29H1332v-1.68c0.1,0,0.46,0,1.05,0s0.94,0,1.05,0
				c2.79,0,5.18-1.04,7.17-3.12c1.99-2.08,3.04-4.57,3.14-7.5H1344.9z M1368.59,1290.88v117.89h-24.17v-117.89H1368.59z
				 M1387.29,1290.88c4.83,0,9.56,0.56,14.18,1.68c4.62,1.12,8.73,2.92,12.33,5.39c3.6,2.47,6.47,5.73,8.62,9.77
				c2.15,4.04,3.22,9.04,3.22,14.99c0,4.72-0.94,9.41-2.82,14.06c-1.88,4.66-4.76,8.65-8.62,11.96c-3.87,3.31-8.86,5.3-14.99,5.98
				c3.44,1.12,6.58,3.14,9.43,6.06c2.85,2.92,5.18,5.84,7.01,8.76c0.11,0.23,0.73,1.24,1.85,3.03c1.13,1.8,2.52,4.01,4.19,6.65
				c1.67,2.64,3.41,5.3,5.24,8c1.83,2.69,3.49,5.05,5,7.07c2.36,3.03,4.51,5.47,6.45,7.33c1.93,1.85,3.97,3.2,6.12,4.04
				c2.15,0.84,4.62,1.32,7.41,1.43v1.68h-15.79c-5.8,0-11.07-0.56-15.79-1.68c-4.73-1.12-8.92-2.95-12.57-5.47
				c-3.65-2.53-6.82-5.98-9.51-10.36c-0.86-1.35-1.8-3.06-2.82-5.14c-1.02-2.08-2.07-4.29-3.14-6.65c-1.08-2.36-2.12-4.63-3.15-6.82
				c-1.02-2.19-1.91-4.18-2.66-5.98c-0.75-1.8-1.29-3.2-1.61-4.21c-1.4-3.59-3.04-6.29-4.92-8.08c-1.88-1.8-3.9-2.86-6.04-3.2v-1.68
				c0.32,0,0.97,0,1.93,0c0.97,0,1.99,0,3.06,0c2.9,0,5.72-0.62,8.46-1.85c2.74-1.23,5.19-3.26,7.34-6.06
				c2.15-2.8,3.65-6.68,4.51-11.62c0.22-1.01,0.4-2.19,0.56-3.54c0.16-1.35,0.19-2.86,0.08-4.55c-0.32-8.08-2.26-14.01-5.8-17.77
				c-3.54-3.76-7.95-5.7-13.21-5.81c-1.51-0.11-3.14-0.14-4.92-0.08c-1.77,0.06-3.39,0.08-4.84,0.08c-1.45,0-2.45,0-2.98,0
				c0-0.11-0.14-0.76-0.4-1.94c-0.27-1.18-0.67-3-1.21-5.47H1387.29z M1368.1,1396.48h0.48c0,2.92,1.02,5.42,3.06,7.5
				c2.04,2.08,4.46,3.12,7.25,3.12c0.21,0,0.86,0,1.93,0v1.68h-12.73V1396.48z"/>
			<path class="st5" d="M1511.22,1303.18h-0.48c-0.11-2.92-1.16-5.42-3.14-7.5c-1.99-2.07-4.38-3.12-7.17-3.12h-2.09v-1.68h12.89
				V1303.18z M1511.22,1396.48v12.29h-12.89v-1.68h2.09c2.79,0,5.18-1.04,7.17-3.12c1.99-2.08,3.04-4.57,3.14-7.5H1511.22z
				 M1534.91,1290.88v117.89h-24.17v-117.89H1534.91z M1534.43,1303.18v-12.29h12.89v1.68c-0.11,0-0.81,0-2.09,0
				c-2.8,0-5.19,1.04-7.17,3.12c-1.99,2.08-3.04,4.58-3.15,7.5H1534.43z M1534.43,1396.48h0.48c0.11,2.92,1.16,5.42,3.15,7.5
				c1.99,2.08,4.38,3.12,7.17,3.12c1.29,0,1.99,0,2.09,0v1.68h-12.89V1396.48z"/>
			<path class="st5" d="M1646.12,1290.88v112.84c0,6.17-1.18,11.76-3.54,16.76c-2.37,5-5.56,9.23-9.59,12.72
				c-4.03,3.48-8.62,6.03-13.78,7.66c-5.16,1.63-10.53,2.16-16.11,1.6v-1.52c4.51-2.02,8.16-5.03,10.96-9.01
				c2.79-3.99,4.81-8.48,6.05-13.47c1.23-5,1.85-10.08,1.85-15.24v-112.33H1646.12z M1622.43,1303.18h-0.48
				c-0.11-2.92-1.16-5.42-3.14-7.5c-1.99-2.07-4.38-3.12-7.17-3.12h-2.09v-1.68h12.89V1303.18z M1645.64,1303.18v-12.29h12.89v1.68
				h-2.09c-2.8,0-5.19,1.04-7.17,3.12c-1.99,2.08-3.04,4.58-3.15,7.5H1645.64z"/>
		</g>
	</g>
	<g>
		<g>
			<g>
				<path class="st6" d="M1015.09,1176.91c-0.68,8.5-1.46,17.26-2.23,25.79H1001c-0.61-6.84-1.25-13.84-1.86-20.64
					c-0.57-6.29-1.16-12.72-1.73-19.19l0.65-77.85l0.01-0.04l0.04-5.79l0.22-26.27v-0.01l1.87-184.68l0.05-6.24l0.01-1.6l0.05-6.05
					h11.74l0.04,5.72l0.01,0.64l0.07,7.52v0.01l2.18,220.51l0.18,22.47l0.38,45.71L1015.09,1176.91z"/>
				<path class="st6" d="M1008.1,865.54c-0.57,0-7.9,2.68-7.9,2.68s-5.58-13.87-12.46-15.3c16.45-1.53,17.12,0.33,17.12,1.41
					c0,1.08,0.67,6.91,0.67,6.91L1008.1,865.54z"/>
				<path class="st6" d="M1004.28,865.54c0.57,0,7.9,2.68,7.9,2.68s5.58-13.87,12.46-15.3c-16.45-1.53-17.12,0.33-17.12,1.41
					c0,1.08-0.67,6.91-0.67,6.91L1004.28,865.54z"/>
			</g>
			<g>
				<g>
					<g>
						<path class="st6" d="M1010.62,1245.36c0-0.15-0.01-0.29-0.01-0.44c-0.03-0.92-0.08-1.9-0.12-2.95
							c-0.11-2.21-0.25-4.74-0.43-7.59c-0.51-7.74-1.34-18.01-2.55-31.68c-0.18-2.13-0.38-4.35-0.59-6.65
							c-0.4-4.52-0.83-9.36-1.31-14.58c-3.02-33.14-6.38-70.07-7.36-97.33c-0.07-1.69-0.11-3.35-0.15-4.96
							c-0.08-2.68-0.12-5.23-0.13-7.67c-0.05-9.69-1.12-19.69-3.12-29.77c-2.48-12.48-6.39-25.08-11.6-37.27
							c-4.32-10.13-9.53-19.99-15.52-29.3c-15.46-24.02-43.28-55.1-88.24-67.61c-0.47-0.13-0.94-0.26-1.42-0.39l-4.96-1.32
							l0.89,4.83l0.04,0.22c0.12,0.68,12.48,68.07,12.48,79.87c0,0.68-0.04,1.61-0.1,2.8c-0.48,9.59-1.59,32.07,12.71,74.37
							c16.97,50.17,49.74,110.85,97.5,180.53c2.21,3.22,4.44,6.46,6.72,9.72l0.4,0.57l0.61,0.36c0.6,0.36,1.26,0.53,1.92,0.53
							c0.04,0,0.08,0,0.12-0.01c0.63-0.01,1.25-0.19,1.81-0.54C1010.02,1257.94,1010.95,1255.88,1010.62,1245.36z M905.31,1065.83
							c-13.9-41.12-12.84-62.73-12.38-71.96c0.05-1.27,0.11-2.26,0.11-3.11c0-10.31-8.37-57.64-11.48-74.85
							c-0.07-0.36-0.12-0.7-0.18-1.03c75.44,23.26,109.82,104.86,110.1,156.66c0.04,7.84,0.38,16.93,0.93,26.81
							c0.14,2.58,0.3,5.2,0.48,7.88v0.03c1.13,17.68,2.8,37.33,4.52,56.6c0.57,6.47,1.16,12.91,1.73,19.19
							c0.62,6.81,1.26,13.81,1.86,20.64c1.02,11.52,1.94,22.6,2.54,31.58c0.26,3.77,0.44,7.17,0.55,10.09
							c0.04,1.17,0.09,2.25,0.11,3.25v0.31c-0.07-0.09-0.13-0.18-0.18-0.27c-0.42-0.62-0.85-1.22-1.27-1.83
							C954.93,1176.2,922.17,1115.69,905.31,1065.83z"/>
						<path class="st6" d="M989.67,1190.84c-6.64-8.94-11.49-18.93-15.73-29.09c-2.12-5.09-4.07-10.24-5.81-15.47
							c-0.44-1.31-0.92-2.6-1.32-3.91l-1.24-3.94c-0.82-2.63-1.68-5.25-2.37-7.92l-2.2-7.97l-1.97-8.03l-0.99-4.01l-0.87-4.04
							l-1.76-8.08c-1.06-5.41-2.07-10.83-3.09-16.26l-2.96-16.41c-2.05-10.93-4.15-21.85-6.49-32.74c-0.57-2.72-1.18-5.44-1.78-8.16
							c-0.61-2.72-1.2-5.44-1.86-8.15l-1.95-8.13l-2.12-8.09c-1.47-5.38-2.94-10.77-4.65-16.09c-1.69-5.33-3.52-10.62-5.54-15.83
							c-4.06-10.42-9.12-20.53-15.59-29.59c5.24,9.82,9.41,20.07,12.58,30.65c1.63,5.27,3.13,10.58,4.45,15.94
							c1.35,5.35,2.63,10.73,3.82,16.13c4.7,21.61,8.66,43.44,12.74,65.24l3.05,16.36l1.66,8.21c0.57,2.74,1.08,5.48,1.72,8.2
							l1.97,8.16l0.99,4.07l1.14,4.04l2.28,8.08l2.6,7.99c0.83,2.67,1.82,5.3,2.77,7.93l1.44,3.94c0.23,0.66,0.5,1.31,0.77,1.95
							l0.81,1.94l1.61,3.88c0.27,0.64,0.53,1.29,0.81,1.93l0.88,1.91l1.75,3.82c0.3,0.63,0.58,1.27,0.88,1.9l0.96,1.87l1.93,3.73
							c0.63,1.25,1.37,2.45,2.04,3.67c0.71,1.21,1.35,2.45,2.1,3.63l2.23,3.56c1.56,2.33,3.14,4.63,4.84,6.85
							C985.93,1186.71,987.73,1188.85,989.67,1190.84z"/>
					</g>
					<path class="st6" d="M1007.51,1202.7c1.2,13.67,2.04,23.94,2.55,31.68c0.62-7.8,1.44-16.83,2.22-25.37
						c0.18-2.08,0.38-4.18,0.57-6.31H1007.51z M1088.14,1032.13c-1.69,0.46-3.34,0.94-4.94,1.47c-26.71,8.75-43.5,27.69-53.02,42.47
						c-7.02,10.89-12.35,22.95-15.65,35.11c-2.47,9.12-3.81,18.3-3.86,27.07c-0.01,1.13-0.02,2.3-0.04,3.51
						c-0.3,14.54-1.96,34.72-3.71,54.27c-0.21,2.23-0.4,4.45-0.61,6.65c-0.17,1.92-0.35,3.83-0.52,5.71
						c-0.85,9.36-1.67,18.33-2.27,25.87c-0.2,2.57-0.38,4.97-0.52,7.17c-0.03,0.47-0.07,0.92-0.09,1.35
						c-0.08,1.08-0.13,2.09-0.18,3.02c-0.04,0.76-0.08,1.46-0.11,2.12c-0.35,8.71,0.37,10.09,2.04,11.14
						c0.54,0.34,1.14,0.51,1.74,0.52c0.04,0.01,0.08,0.01,0.12,0.01c0.63,0,1.26-0.16,1.82-0.5l0.61-0.36l0.4-0.59
						c2.88-4.14,5.69-8.23,8.4-12.27c28.35-42.07,47.95-78.88,58.34-109.58c9.21-27.22,8.5-41.74,8.18-47.94
						c-0.03-0.7-0.07-1.31-0.07-1.72c0-5.27,4.18-29.78,6.78-44.34c0.46-2.5,0.86-4.71,1.18-6.48l0.92-5.06L1088.14,1032.13z
						 M1077.72,1086.68c0,0.56,0.03,1.22,0.08,2.05c0.29,5.83,0.96,19.47-7.85,45.54c-10.4,30.78-30.36,67.97-59.33,110.65
						c-0.1,0.14-0.2,0.28-0.28,0.42c-0.39,0.55-0.76,1.11-1.14,1.66c0.03-0.55,0.05-1.14,0.1-1.74c0.03-0.66,0.08-1.35,0.12-2.08
						c0.17-2.64,0.39-5.61,0.65-8.79c0.62-7.8,1.44-16.83,2.22-25.37c0.18-2.08,0.38-4.18,0.57-6.31c0.77-8.53,1.55-17.3,2.23-25.79
						c0.42-5.29,0.8-10.46,1.13-15.41c0-0.01,0-0.01,0-0.02c0.56-8.66,0.93-16.61,0.96-23.18c0.17-31.99,20.91-81.96,66.3-97.91
						c0.02-0.01,0.02-0.01,0.03-0.01c0.01-0.01,0.01-0.01,0.01-0.01c0.43-0.16,0.87-0.3,1.31-0.46
						C1082.7,1051.83,1077.72,1080.24,1077.72,1086.68z"/>
					<path class="st6" d="M1017.15,1214.51c1.29-1.23,2.49-2.57,3.64-3.94c1.14-1.39,2.19-2.84,3.23-4.31
						c1.01-1.48,1.99-2.99,2.89-4.55c0.95-1.53,1.8-3.11,2.66-4.7c3.37-6.36,6.1-13.04,8.47-19.82l1.71-5.11l1.51-5.17l0.75-2.59
						l0.66-2.61l1.3-5.22c0.43-1.74,0.76-3.5,1.13-5.26l1.09-5.26l1.96-10.45c2.61-13.92,5.04-27.87,7.9-41.68
						c1.44-6.9,3-13.76,4.92-20.52c1.87-6.79,4.37-13.36,7.49-19.77c-4.36,5.65-7.75,12.09-10.51,18.71
						c-2.75,6.64-4.93,13.49-6.88,20.37c-3.83,13.78-6.71,27.73-9.32,41.7l-1.88,10.49l-1.92,10.36l-1.08,5.15l-0.53,2.58
						l-0.61,2.56l-1.21,5.12l-1.35,5.08c-1.85,6.76-3.94,13.46-6.49,20C1024.13,1202.22,1021.19,1208.63,1017.15,1214.51z"/>
				</g>
			</g>
			<g>
				<g>
					<path class="st8" d="M1016.31,756.31c-7.09-42.26-36.63-67.9-39.95-70.66c-2.49,3.52-24.47,35.89-20.46,78.55
						c3.29,35.02,25.43,36.02,35.25,34.69C1000.98,797.65,1022.13,791,1016.31,756.31z"/>
					<path class="st8" d="M992.65,757.4c7.09-42.26,36.63-67.9,39.95-70.66c2.49,3.52,24.47,35.89,20.46,78.55
						c-3.29,35.02-25.43,36.02-35.25,34.69C1007.98,798.74,986.83,792.09,992.65,757.4z"/>
					<g>
						<path class="st5" d="M1073.58,807.37c8.43-59.18-20.02-105.76-23.26-110.82c-4.8,3.62-47.69,37.38-60.39,95.79
							c-10.42,47.95,18.59,58.64,32.21,61.02C1035.73,855.86,1066.66,855.95,1073.58,807.37z"/>
						<path class="st5" d="M934.82,807.37c-8.43-59.18,20.02-105.76,23.26-110.82c4.8,3.62,47.69,37.38,60.39,95.79
							c10.43,47.95-18.59,58.64-32.21,61.02C972.66,855.86,941.74,855.95,934.82,807.37z"/>
					</g>
					<path class="st9" d="M1051.59,799.84c-2.42-66.63-42.84-112.14-47.4-117.07c-4.56,4.93-44.98,50.44-47.4,117.07
						c-1.99,54.69,31.98,60.7,47.4,60.63C1019.62,860.54,1053.58,854.53,1051.59,799.84z"/>
				</g>
			</g>
			<path class="st6" d="M1006.25,1246.99c-0.67,0.24-1.35,0.44-2.05,0.63c-0.07,0.01-0.12,0.03-0.18,0.04
				c-0.46,0.12-0.91,0.22-1.38,0.29c-1.92,0.38-3.91,0.53-5.98,0.49c-47.76-69.67-80.53-130.36-97.5-180.53
				c-14.31-42.3-13.19-64.77-12.71-74.37c0.05-1.18,0.1-2.11,0.1-2.8c0-11.8-12.37-79.19-12.48-79.87l-0.04-0.22l1.69,1.16
				c1.53,1.27,5.68,3.05,5.68,3.05s15.74,31.63,17.52,76.25c1.71,42.71,77.18,214.49,104.03,251.68c0.4,0.55,0.78,1.07,1.16,1.56
				C1004.86,1245.38,1005.57,1246.26,1006.25,1246.99z"/>
			<path class="st6" d="M1002.55,1066.48l-4.29,17.66l-0.2,0.82l-5.18,21.3v-0.03c-0.12-2.66-0.28-5.29-0.48-7.88
				C983,970.69,888.85,919.68,881.96,916.11c-0.26-0.14-0.4-0.21-0.4-0.21l-0.26-1.06l-1.8-7.29c44.95,12.52,72.77,43.6,88.24,67.61
				c5.99,9.31,11.19,19.17,15.52,29.3c4.17,13.42,8.26,26.56,11.6,37.27c1.28,4.13,2.45,7.89,3.47,11.16
				C1000.92,1061.26,1002.55,1066.48,1002.55,1066.48z"/>
			<path class="st6" d="M1084.28,1088.4c0.31,6.2,1.03,20.72-8.18,47.94c-10.38,30.69-29.99,67.51-58.34,109.58
				c-2.32-0.18-4.69-0.37-7.14-0.56c-0.1-0.01-0.2-0.02-0.29-0.02c-0.34-0.03-0.68-0.05-1.04-0.09c-0.57-0.04-1.17-0.1-1.76-0.14
				c0.61-0.6,1.24-1.24,1.87-1.94c0.36-0.38,0.72-0.78,1.08-1.2c22.48-25.96,60.48-112.6,59.77-149.35
				c-0.62-31.47,9.57-47.5,13.26-52.26c0.81-1.05,1.31-1.55,1.31-1.55s2.55,1.46,6.17,3.53c-2.6,14.55-6.78,39.07-6.78,44.34
				C1084.22,1087.09,1084.25,1087.7,1084.28,1088.4z"/>
			<path class="st6" d="M1084.84,1035.75c0,2.68-1.01,4.19-1.26,4.53c-0.03,0.05-0.05,0.08-0.05,0.08s0,0-0.01,0.01
				c-0.01,0-0.01,0-0.03,0.01c-1.73,0.93-57.21,31.54-67.27,121.1c-0.46-1.58-0.88-3.11-1.3-4.57c-1.67-5.96-3.09-10.96-4.28-15.13
				c-5.94-20.71-6.44-21.36-6.44-21.36s4.45-13.98,10.15-31.69l0.18,22.47c3.29-12.16,8.63-24.22,15.65-35.11
				c9.52-14.78,26.3-33.73,53.02-42.47L1084.84,1035.75z"/>
		</g>
		<path class="st6" d="M1133.2,1228.16c17.33-8.69,33.98-18.54,49.56-29.79c15.68-11.09,30.3-23.56,43.74-37.09
			c13.39-13.57,25.88-27.96,36.82-43.44c10.99-15.43,20.66-31.73,28.89-48.67c16.39-33.88,27.33-70.26,31.33-107.35
			c4.16-37.05,2.12-74.64-5.82-110.74c-8.22-36.06-22.45-70.58-41.88-101.81c-19.68-31.07-44.34-58.91-72.91-81.87
			c-28.6-22.92-61-40.95-95.44-53.09c-34.42-12.27-70.94-18.2-107.47-18.34c-36.52,0.18-73.05,6.05-107.46,18.36
			c-34.44,12.14-66.85,30.15-95.42,53.09c-28.58,22.95-53.21,50.8-72.89,81.86c-9.75,15.59-18.11,32.06-25.12,49.1
			c-7.04,17.03-12.65,34.67-16.75,52.7c-7.92,36.1-10,73.68-5.82,110.72c4,37.09,14.92,73.46,31.31,107.34
			c16.41,33.9,38.71,65.16,65.68,92.11c13.44,13.53,28.05,26.01,43.73,37.1c15.58,11.26,32.22,21.11,49.55,29.81
			c-18.22-6.64-35.82-15.12-52.73-24.91c-16.87-9.87-32.83-21.39-47.82-34.13c-30.05-25.45-55.35-56.65-75.21-91.14
			c-19.39-34.75-33.1-72.98-39.61-112.64c-3.32-19.81-4.88-39.95-4.59-60.1c0.22-20.14,2.01-40.34,5.71-60.24
			c3.78-19.88,9.24-39.46,16.33-58.47c7.12-18.99,15.9-37.39,26.19-54.93c20.68-35.03,47.56-66.37,78.82-92.56
			c31.34-26.14,67.4-46.56,105.79-60.66c38.47-13.99,79.44-20.77,120.3-21.06c40.86,0.32,81.83,7.06,120.29,21.09
			c38.37,14.1,74.45,34.51,105.77,60.67c31.27,26.18,58.12,57.54,78.8,92.56c20.63,35.05,34.97,73.63,42.51,113.39
			c3.7,19.9,5.48,40.09,5.71,60.23c0.31,20.14-1.28,40.28-4.59,60.09c-6.5,39.65-20.19,77.89-39.6,112.62
			c-19.85,34.49-45.14,65.69-75.19,91.14c-14.98,12.74-30.94,24.26-47.81,34.14C1169.01,1213.04,1151.41,1221.52,1133.2,1228.16z"/>
	</g>
</g>
</svg>
